<svg xmlns="http://www.w3.org/2000/svg" viewBox="0 0 358.1 58.8" width="358" height="59" role="img" aria-label="Vibe. Code. Flow. wordmark">
<g transform="translate(11.35 46.23)">
<path d="M8.78 -0.00L0.65 -23.92L5.61 -23.92L9.24 -13.02L11.69 -4.64L11.96 -4.64L14.40 -13.02L18.13 -23.92L22.91 -23.92L14.68 -0.00L8.78 -0.00ZM29.67 -28.20Q28.11 -28.20 27.39 -28.93Q26.68 -29.67 26.68 -30.82L26.68 -31.60Q26.68 -32.75 27.39 -33.49Q28.11 -34.23 29.67 -34.23Q31.24 -34.23 31.93 -33.49Q32.62 -32.75 32.62 -31.60L32.62 -30.82Q32.62 -29.67 31.93 -28.93Q31.24 -28.20 29.67 -28.20ZM27.14 -23.92L32.16 -23.92L32.16 -0.00L27.14 -0.00L27.14 -23.92ZM39.33 -34.04L44.35 -34.04L44.35 -19.97L44.58 -19.97Q45.36 -22.12 47.13 -23.29Q48.90 -24.47 51.29 -24.47Q55.85 -24.47 58.33 -21.18Q60.81 -17.90 60.81 -11.96Q60.81 -6.02 58.33 -2.73Q55.85 0.55 51.29 0.55Q48.90 0.55 47.13 -0.64Q45.36 -1.84 44.58 -3.95L44.35 -3.95L44.35 -0.00L39.33 -0.00L39.33 -34.04ZM49.77 -3.77Q52.40 -3.77 53.96 -5.45Q55.52 -7.13 55.52 -9.89L55.52 -14.03Q55.52 -16.79 53.96 -18.46Q52.40 -20.15 49.77 -20.15Q47.47 -20.15 45.91 -19.02Q44.35 -17.90 44.35 -16.06L44.35 -7.86Q44.35 -6.02 45.91 -4.89Q47.47 -3.77 49.77 -3.77ZM75.95 0.55Q73.37 0.55 71.34 -0.32Q69.32 -1.19 67.89 -2.82Q66.47 -4.46 65.71 -6.79Q64.95 -9.11 64.95 -11.96Q64.95 -14.81 65.71 -17.14Q66.47 -19.46 67.89 -21.09Q69.32 -22.73 71.34 -23.60Q73.37 -24.47 75.95 -24.47Q78.57 -24.47 80.57 -23.55Q82.57 -22.63 83.90 -20.99Q85.24 -19.36 85.90 -17.20Q86.57 -15.04 86.57 -12.56L86.57 -10.67L70.15 -10.67L70.15 -9.89Q70.15 -7.13 71.78 -5.35Q73.42 -3.59 76.45 -3.59Q78.66 -3.59 80.17 -4.55Q81.70 -5.52 82.75 -7.17L85.70 -4.28Q84.36 -2.07 81.83 -0.75Q79.30 0.55 75.95 0.55ZM75.95 -20.56Q74.66 -20.56 73.58 -20.10Q72.50 -19.64 71.74 -18.81Q70.98 -17.98 70.56 -16.83Q70.15 -15.68 70.15 -14.30L70.15 -13.99L81.28 -13.99L81.28 -14.45Q81.28 -17.21 79.85 -18.88Q78.43 -20.56 75.95 -20.56Z" fill="#181820"/>
<path d="M93.24 0.55Q91.54 0.55 90.71 -0.35Q89.88 -1.24 89.88 -2.57L89.88 -3.26Q89.88 -4.60 90.71 -5.50Q91.54 -6.40 93.24 -6.40Q94.94 -6.40 95.77 -5.50Q96.60 -4.60 96.60 -3.26L96.60 -2.57Q96.60 -1.24 95.77 -0.35Q94.94 0.55 93.24 0.55Z" fill="#7C78FF"/>
<path d="M123.23 0.55Q120.65 0.55 118.63 -0.32Q116.61 -1.19 115.23 -2.82Q113.85 -4.46 113.11 -6.79Q112.37 -9.11 112.37 -11.96Q112.37 -14.81 113.11 -17.14Q113.85 -19.46 115.23 -21.09Q116.61 -22.73 118.63 -23.60Q120.65 -24.47 123.23 -24.47Q126.82 -24.47 129.12 -22.86Q131.42 -21.25 132.48 -18.59L128.34 -16.65Q127.83 -18.31 126.57 -19.29Q125.30 -20.28 123.23 -20.28Q120.47 -20.28 119.07 -18.56Q117.66 -16.83 117.66 -14.07L117.66 -9.80Q117.66 -7.04 119.07 -5.31Q120.47 -3.59 123.23 -3.59Q125.44 -3.59 126.75 -4.66Q128.06 -5.75 128.84 -7.55L132.66 -5.52Q131.46 -2.57 129.07 -1.01Q126.68 0.55 123.23 0.55ZM146.83 0.55Q144.34 0.55 142.30 -0.32Q140.25 -1.19 138.82 -2.82Q137.40 -4.46 136.62 -6.79Q135.83 -9.11 135.83 -11.96Q135.83 -14.81 136.62 -17.14Q137.40 -19.46 138.82 -21.09Q140.25 -22.73 142.30 -23.60Q144.34 -24.47 146.83 -24.47Q149.31 -24.47 151.36 -23.60Q153.41 -22.73 154.83 -21.09Q156.26 -19.46 157.04 -17.14Q157.82 -14.81 157.82 -11.96Q157.82 -9.11 157.04 -6.79Q156.26 -4.46 154.83 -2.82Q153.41 -1.19 151.36 -0.32Q149.31 0.55 146.83 0.55ZM146.83 -3.59Q149.40 -3.59 150.96 -5.17Q152.53 -6.76 152.53 -9.93L152.53 -13.99Q152.53 -17.16 150.96 -18.75Q149.40 -20.33 146.83 -20.33Q144.25 -20.33 142.68 -18.75Q141.12 -17.16 141.12 -13.99L141.12 -9.93Q141.12 -6.76 142.68 -5.17Q144.25 -3.59 146.83 -3.59ZM178.43 -3.95L178.20 -3.95Q177.42 -1.84 175.64 -0.64Q173.87 0.55 171.49 0.55Q166.93 0.55 164.44 -2.73Q161.96 -6.02 161.96 -11.96Q161.96 -17.90 164.44 -21.18Q166.93 -24.47 171.49 -24.47Q173.87 -24.47 175.64 -23.29Q177.42 -22.12 178.20 -19.97L178.43 -19.97L178.43 -34.04L183.45 -34.04L183.45 -0.00L178.43 -0.00L178.43 -3.95ZM173.00 -3.77Q175.30 -3.77 176.86 -4.89Q178.43 -6.02 178.43 -7.86L178.43 -16.06Q178.43 -17.90 176.86 -19.02Q175.30 -20.15 173.00 -20.15Q170.38 -20.15 168.81 -18.46Q167.25 -16.79 167.25 -14.03L167.25 -9.89Q167.25 -7.13 168.81 -5.45Q170.38 -3.77 173.00 -3.77ZM200.01 0.55Q197.43 0.55 195.40 -0.32Q193.38 -1.19 191.95 -2.82Q190.53 -4.46 189.76 -6.79Q189.01 -9.11 189.01 -11.96Q189.01 -14.81 189.76 -17.14Q190.53 -19.46 191.95 -21.09Q193.38 -22.73 195.40 -23.60Q197.43 -24.47 200.01 -24.47Q202.63 -24.47 204.63 -23.55Q206.63 -22.63 207.96 -20.99Q209.30 -19.36 209.96 -17.20Q210.63 -15.04 210.63 -12.56L210.63 -10.67L194.21 -10.67L194.21 -9.89Q194.21 -7.13 195.84 -5.35Q197.48 -3.59 200.51 -3.59Q202.72 -3.59 204.23 -4.55Q205.76 -5.52 206.81 -7.17L209.76 -4.28Q208.42 -2.07 205.89 -0.75Q203.36 0.55 200.01 0.55ZM200.01 -20.56Q198.72 -20.56 197.63 -20.10Q196.56 -19.64 195.79 -18.81Q195.04 -17.98 194.62 -16.83Q194.21 -15.68 194.21 -14.30L194.21 -13.99L205.34 -13.99L205.34 -14.45Q205.34 -17.21 203.91 -18.88Q202.49 -20.56 200.01 -20.56Z" fill="#181820"/>
<path d="M217.30 0.55Q215.60 0.55 214.77 -0.35Q213.94 -1.24 213.94 -2.57L213.94 -3.26Q213.94 -4.60 214.77 -5.50Q215.60 -6.40 217.30 -6.40Q219.00 -6.40 219.83 -5.50Q220.66 -4.60 220.66 -3.26L220.66 -2.57Q220.66 -1.24 219.83 -0.35Q219.00 0.55 217.30 0.55Z" fill="#7C78FF"/>
<path d="M239.29 -19.82L235.65 -19.82L235.65 -23.92L239.29 -23.92L239.29 -27.87Q239.29 -30.78 240.80 -32.41Q242.32 -34.04 245.36 -34.04L249.31 -34.04L249.31 -29.94L244.30 -29.94L244.30 -23.92L249.31 -23.92L249.31 -19.82L244.30 -19.82L244.30 -0.00L239.29 -0.00L239.29 -19.82ZM258.79 -0.00Q256.21 -0.00 254.95 -1.31Q253.68 -2.62 253.68 -4.97L253.68 -34.04L258.70 -34.04L258.70 -4.10L262.01 -4.10L262.01 -0.00L258.79 -0.00ZM276.18 0.55Q273.69 0.55 271.64 -0.32Q269.60 -1.19 268.17 -2.82Q266.75 -4.46 265.97 -6.79Q265.18 -9.11 265.18 -11.96Q265.18 -14.81 265.97 -17.14Q266.75 -19.46 268.17 -21.09Q269.60 -22.73 271.64 -23.60Q273.69 -24.47 276.18 -24.47Q278.66 -24.47 280.71 -23.60Q282.76 -22.73 284.18 -21.09Q285.61 -19.46 286.39 -17.14Q287.17 -14.81 287.17 -11.96Q287.17 -9.11 286.39 -6.79Q285.61 -4.46 284.18 -2.82Q282.76 -1.19 280.71 -0.32Q278.66 0.55 276.18 0.55ZM276.18 -3.59Q278.75 -3.59 280.31 -5.17Q281.88 -6.76 281.88 -9.93L281.88 -13.99Q281.88 -17.16 280.31 -18.75Q278.75 -20.33 276.18 -20.33Q273.60 -20.33 272.03 -18.75Q270.47 -17.16 270.47 -13.99L270.47 -9.93Q270.47 -6.76 272.03 -5.17Q273.60 -3.59 276.18 -3.59ZM290.34 -23.92L295.22 -23.92L297.66 -13.89L299.82 -4.83L299.96 -4.83L302.45 -13.89L305.34 -23.92L309.85 -23.92L312.80 -13.89L315.33 -4.83L315.46 -4.83L317.58 -13.89L320.06 -23.92L324.71 -23.92L318.27 -0.00L312.61 -0.00L309.48 -10.90L307.55 -17.62L307.46 -17.62L305.57 -10.90L302.40 -0.00L296.88 -0.00L290.34 -23.92Z" fill="#181820"/>
<path d="M331.38 0.55Q329.67 0.55 328.85 -0.35Q328.02 -1.24 328.02 -2.57L328.02 -3.26Q328.02 -4.60 328.85 -5.50Q329.67 -6.40 331.38 -6.40Q333.08 -6.40 333.91 -5.50Q334.73 -4.60 334.73 -3.26L334.73 -2.57Q334.73 -1.24 333.91 -0.35Q333.08 0.55 331.38 0.55Z" fill="#7C78FF"/>
</g></svg>